<svg width="278" height="90" viewBox="0 0 278 90" fill="none" xmlns="http://www.w3.org/2000/svg">
<g clip-path="url(#clip0_2171_4691)">
<path d="M16.2644 79.6798C18.9329 52.3186 45.9353 35.1895 70.2565 28.0408C85.1618 23.661 100.868 22.1885 116.345 23.6736C123.994 24.4036 131.911 25.7125 139.167 28.3051C145.863 30.6964 152.318 34.6986 155.571 41.1928C162.052 54.1309 150.476 68.252 138.557 72.8583C132.622 75.1489 125.646 75.4762 119.687 73.0723C113.727 70.6684 109.597 65.5083 108.416 59.1526C106.039 46.3404 113.613 33.6918 122.571 25.0958C132.775 15.2916 145.927 9.27562 159.688 6.16696C175.852 2.51712 192.739 2.63039 209.208 3.56173C226.553 4.54341 243.771 6.85917 260.963 9.33854C265.22 9.95524 269.464 10.5845 273.721 11.2138C274.928 11.39 276.466 11.1131 277.368 10.2447C278.092 9.53992 278.016 8.62116 276.885 8.44496C258.32 5.57543 239.717 2.78142 220.987 1.23338C203.096 -0.239137 184.759 -0.86842 166.97 1.98852C151.238 4.51824 135.888 10.0056 123.308 19.8979C112.558 28.3429 102.977 40.8782 102.736 54.9993C102.634 61.3676 104.591 67.7989 109.623 72.0529C115.392 76.9487 123.512 78.245 130.869 77.4269C144.796 75.8663 159.688 65.7097 162.535 51.4124C163.996 44.0498 160.438 36.8256 154.834 32.0682C148.849 26.9836 141.047 24.6427 133.487 22.994C117.018 19.4197 99.7495 19.2057 83.1795 22.2388C67.6642 25.0832 52.2506 30.4824 39.1624 39.3427C27.8659 46.9948 17.8146 57.4157 13.418 70.4922C12.3506 73.6638 11.6772 76.9361 11.3595 80.2587C11.1689 82.2095 16.1246 81.2907 16.2898 79.642L16.2644 79.6798Z" fill="#262926"/>
<path d="M13.5836 87.7094L9.27588 74.2175L7.20464 67.7233L6.08642 64.2245C5.8577 63.4946 5.18422 62.3493 5.46378 61.6067C5.76875 60.7509 4.39639 60.4866 3.88811 60.474C2.7826 60.4362 1.66438 60.839 0.800306 61.506C-0.0637712 62.1731 -0.140013 62.9156 0.152248 63.8973C0.533458 65.1559 0.95279 66.4018 1.34671 67.6478L3.58314 74.6454L8.20849 89.1315C8.80572 90.9816 14.1554 89.5091 13.5836 87.7094Z" fill="#262926"/>
<path d="M16.4681 86.7277C21.6271 80.7495 27.0784 75.0608 32.4281 69.2588C33.127 68.5037 33.0634 67.6982 31.9325 67.4465C30.8016 67.1948 29.1243 67.5975 28.2729 68.4156C22.3387 74.1546 16.8366 80.3845 11.4488 86.6144C10.5974 87.5961 12.1731 88.1625 12.9101 88.175C14.2189 88.2128 15.604 87.7094 16.4554 86.7151L16.4681 86.7277Z" fill="#262926"/>
</g>
<defs>
<clipPath id="clip0_2171_4691">
<rect width="277.826" height="90" fill="white"/>
</clipPath>
</defs>
</svg>
