<svg width="12" height="10" viewBox="0 0 12 10" fill="none" xmlns="http://www.w3.org/2000/svg">
<path d="M1.80273 9.63574C1.22298 9.63574 0.77653 9.48128 0.463379 9.17236C0.15446 8.86344 0 8.42122 0 7.8457V1.79639C0 1.21663 0.15446 0.772298 0.463379 0.463379C0.772298 0.15446 1.18913 0 1.71387 0H3.104C3.39176 0 3.62028 0.0296224 3.78955 0.0888672C3.96305 0.148112 4.14714 0.25179 4.3418 0.399902L4.5957 0.59668C4.75651 0.719401 4.90462 0.806152 5.04004 0.856934C5.17546 0.907715 5.33838 0.933105 5.52881 0.933105H9.84521C10.4292 0.933105 10.8757 1.08757 11.1846 1.39648C11.4935 1.70117 11.6479 2.14128 11.6479 2.7168V7.8457C11.6479 8.42122 11.4977 8.86344 11.1973 9.17236C10.8968 9.48128 10.4779 9.63574 9.94043 9.63574H1.80273ZM1.95508 8.25195H9.69287C9.8833 8.25195 10.0272 8.2054 10.1245 8.1123C10.2218 8.01921 10.2705 7.87533 10.2705 7.68066V2.88818C10.2705 2.68929 10.2218 2.54329 10.1245 2.4502C10.0272 2.3571 9.8833 2.31055 9.69287 2.31055H5.1543C4.86654 2.31055 4.6359 2.28092 4.4624 2.22168C4.2889 2.16243 4.10482 2.05664 3.91016 1.9043L3.65625 1.70752C3.49544 1.5848 3.34733 1.50016 3.21191 1.45361C3.08073 1.40283 2.91992 1.37744 2.72949 1.37744H1.98047C1.79427 1.37744 1.64616 1.42822 1.53613 1.52979C1.43034 1.63135 1.37744 1.77523 1.37744 1.96143V7.67432C1.37744 7.87321 1.42611 8.01921 1.52344 8.1123C1.625 8.2054 1.76888 8.25195 1.95508 8.25195ZM0.888672 4.29102V3.16748H10.7847V4.29102H0.888672Z" fill="white"/>
</svg>
