<svg width="158" height="80" viewBox="0 0 158 80" fill="none" xmlns="http://www.w3.org/2000/svg">
<path d="M10.472 48C10.248 48 10.136 47.92 10.136 47.76C10.136 47.584 10.296 47.472 10.616 47.424L11.096 47.352C11.448 47.304 11.688 47.224 11.816 47.112C11.96 46.984 12.064 46.752 12.128 46.416L15.392 32.304C15.472 31.968 15.472 31.744 15.392 31.632C15.312 31.52 15.112 31.432 14.792 31.368L14.312 31.272C14.104 31.224 14 31.136 14 31.008C14 30.816 14.144 30.72 14.432 30.72H18.704C18.928 30.72 19.04 30.8 19.04 30.96C19.04 31.136 18.88 31.248 18.56 31.296L18.08 31.368C17.728 31.416 17.488 31.504 17.36 31.632C17.232 31.744 17.128 31.968 17.048 32.304L13.784 46.416C13.72 46.752 13.72 46.976 13.784 47.088C13.864 47.2 14.064 47.288 14.384 47.352L14.864 47.448C15.072 47.496 15.176 47.584 15.176 47.712C15.176 47.904 15.032 48 14.744 48H10.472ZM18.272 47.688L20.552 38.112C20.632 37.76 20.64 37.488 20.576 37.296C20.528 37.088 20.384 36.984 20.144 36.984C19.856 36.984 19.536 37.2 19.184 37.632C18.848 38.048 18.464 38.848 18.032 40.032C17.968 40.24 17.856 40.344 17.696 40.344C17.456 40.344 17.392 40.2 17.504 39.912C17.856 38.808 18.224 37.944 18.608 37.32C19.008 36.696 19.408 36.256 19.808 36C20.208 35.744 20.576 35.616 20.912 35.616C21.44 35.616 21.816 35.816 22.04 36.216C22.264 36.6 22.272 37.24 22.064 38.136L21.464 40.728C21.448 40.84 21.472 40.904 21.536 40.92C21.6 40.936 21.656 40.896 21.704 40.8C22.328 39.504 22.928 38.48 23.504 37.728C24.08 36.96 24.624 36.416 25.136 36.096C25.648 35.776 26.112 35.616 26.528 35.616C27.12 35.616 27.552 35.856 27.824 36.336C28.096 36.816 28.096 37.552 27.824 38.544L26 45.504C25.888 45.952 25.88 46.288 25.976 46.512C26.072 46.736 26.248 46.848 26.504 46.848C26.824 46.848 27.136 46.64 27.44 46.224C27.76 45.792 28.088 44.984 28.424 43.8C28.472 43.624 28.576 43.536 28.736 43.536C28.864 43.536 28.936 43.584 28.952 43.68C28.984 43.776 28.984 43.888 28.952 44.016C28.648 45.104 28.32 45.96 27.968 46.584C27.616 47.192 27.256 47.616 26.888 47.856C26.536 48.096 26.176 48.216 25.808 48.216C25.232 48.216 24.8 47.976 24.512 47.496C24.224 47.016 24.208 46.272 24.464 45.264L26.312 38.304C26.488 37.68 26.512 37.248 26.384 37.008C26.272 36.768 26.104 36.648 25.88 36.648C25.528 36.648 25.128 36.872 24.68 37.32C24.232 37.752 23.776 38.352 23.312 39.12C22.848 39.872 22.392 40.728 21.944 41.688C21.496 42.648 21.088 43.648 20.72 44.688C20.368 45.728 20.08 46.744 19.856 47.736C19.808 47.912 19.696 48 19.52 48H18.536C18.312 48 18.224 47.896 18.272 47.688ZM34.4116 33.48C34.1076 33.48 33.8516 33.376 33.6436 33.168C33.4516 32.944 33.3556 32.68 33.3556 32.376C33.3556 31.944 33.4836 31.6 33.7396 31.344C34.0116 31.088 34.3156 30.96 34.6516 30.96C34.9716 30.96 35.2356 31.064 35.4436 31.272C35.6676 31.464 35.7796 31.72 35.7796 32.04C35.7796 32.488 35.6436 32.84 35.3716 33.096C35.0996 33.352 34.7796 33.48 34.4116 33.48ZM32.4436 48.24C31.9156 48.24 31.5396 48.048 31.3156 47.664C31.0916 47.264 31.0836 46.616 31.2916 45.72L33.0676 38.112C33.1476 37.76 33.1556 37.488 33.0916 37.296C33.0436 37.088 32.8996 36.984 32.6596 36.984C32.3716 36.984 32.0516 37.2 31.6996 37.632C31.3636 38.048 30.9796 38.848 30.5476 40.032C30.4836 40.24 30.3716 40.344 30.2116 40.344C29.9716 40.344 29.9076 40.2 30.0196 39.912C30.3716 38.808 30.7396 37.944 31.1236 37.32C31.5236 36.696 31.9236 36.256 32.3236 36C32.7236 35.744 33.0916 35.616 33.4276 35.616C33.9876 35.616 34.3796 35.816 34.6036 36.216C34.8276 36.6 34.8356 37.24 34.6276 38.136L32.8516 45.744C32.7716 46.096 32.7556 46.376 32.8036 46.584C32.8676 46.776 33.0196 46.872 33.2596 46.872C33.5476 46.872 33.8596 46.664 34.1956 46.248C34.5476 45.816 34.9396 45.008 35.3716 43.824C35.4356 43.616 35.5476 43.512 35.7076 43.512C35.9476 43.512 36.0116 43.656 35.8996 43.944C35.5636 45.032 35.1876 45.896 34.7716 46.536C34.3716 47.16 33.9716 47.6 33.5716 47.856C33.1716 48.112 32.7956 48.24 32.4436 48.24ZM39.8377 48.216C38.9577 48.216 38.2297 47.856 37.6537 47.136C37.0777 46.4 36.7897 45.464 36.7897 44.328C36.7897 43.256 36.9577 42.208 37.2937 41.184C37.6457 40.144 38.1097 39.208 38.6857 38.376C39.2777 37.528 39.9257 36.856 40.6297 36.36C41.3497 35.864 42.0697 35.616 42.7897 35.616C43.5577 35.616 44.2057 35.824 44.7337 36.24C44.8137 36.304 44.8617 36.36 44.8777 36.408C44.8937 36.44 44.8857 36.52 44.8537 36.648L44.2057 39.792C44.1577 40.016 44.0537 40.128 43.8937 40.128C43.7177 40.128 43.6137 40.008 43.5817 39.768L43.4617 38.064C43.4137 37.328 43.3017 36.848 43.1257 36.624C42.9657 36.4 42.7257 36.288 42.4057 36.288C41.9577 36.288 41.5017 36.512 41.0377 36.96C40.5737 37.392 40.1417 37.984 39.7417 38.736C39.3577 39.472 39.0457 40.296 38.8057 41.208C38.5817 42.104 38.4697 43.016 38.4697 43.944C38.4697 45.96 39.1257 46.968 40.4377 46.968C41.0617 46.968 41.6217 46.68 42.1177 46.104C42.6297 45.528 43.1017 44.632 43.5337 43.416C43.5817 43.256 43.6937 43.176 43.8697 43.176C43.9657 43.176 44.0217 43.216 44.0377 43.296C44.0537 43.36 44.0377 43.496 43.9897 43.704C43.8297 44.584 43.5417 45.36 43.1257 46.032C42.7097 46.704 42.2137 47.24 41.6377 47.64C41.0777 48.024 40.4777 48.216 39.8377 48.216ZM49.7398 33.48C49.4358 33.48 49.1798 33.376 48.9718 33.168C48.7798 32.944 48.6838 32.68 48.6838 32.376C48.6838 31.944 48.8118 31.6 49.0678 31.344C49.3398 31.088 49.6438 30.96 49.9798 30.96C50.2998 30.96 50.5638 31.064 50.7718 31.272C50.9958 31.464 51.1078 31.72 51.1078 32.04C51.1078 32.488 50.9718 32.84 50.6998 33.096C50.4278 33.352 50.1078 33.48 49.7398 33.48ZM47.7718 48.24C47.2438 48.24 46.8678 48.048 46.6438 47.664C46.4198 47.264 46.4118 46.616 46.6198 45.72L48.3958 38.112C48.4758 37.76 48.4838 37.488 48.4198 37.296C48.3718 37.088 48.2278 36.984 47.9878 36.984C47.6998 36.984 47.3798 37.2 47.0278 37.632C46.6918 38.048 46.3078 38.848 45.8758 40.032C45.8118 40.24 45.6998 40.344 45.5398 40.344C45.2998 40.344 45.2358 40.2 45.3478 39.912C45.6998 38.808 46.0678 37.944 46.4518 37.32C46.8518 36.696 47.2518 36.256 47.6518 36C48.0518 35.744 48.4198 35.616 48.7558 35.616C49.3158 35.616 49.7078 35.816 49.9318 36.216C50.1558 36.6 50.1638 37.24 49.9558 38.136L48.1798 45.744C48.0998 46.096 48.0838 46.376 48.1318 46.584C48.1958 46.776 48.3478 46.872 48.5878 46.872C48.8758 46.872 49.1878 46.664 49.5238 46.248C49.8758 45.816 50.2678 45.008 50.6998 43.824C50.7638 43.616 50.8758 43.512 51.0358 43.512C51.2758 43.512 51.3398 43.656 51.2278 43.944C50.8918 45.032 50.5158 45.896 50.0998 46.536C49.6998 47.16 49.2998 47.6 48.8998 47.856C48.4998 48.112 48.1238 48.24 47.7718 48.24ZM53.8938 48.216C53.3178 48.216 52.8698 47.968 52.5498 47.472C52.2298 46.976 52.0698 46.248 52.0698 45.288C52.0698 44.376 52.1978 43.464 52.4538 42.552C52.7098 41.624 53.0618 40.744 53.5098 39.912C53.9578 39.08 54.4618 38.344 55.0218 37.704C55.5978 37.064 56.1978 36.56 56.8218 36.192C57.4618 35.808 58.0938 35.616 58.7178 35.616C59.0218 35.616 59.3098 35.68 59.5818 35.808C59.8538 35.92 60.0778 36.104 60.2538 36.36C60.3498 36.504 60.4458 36.576 60.5418 36.576C60.6378 36.576 60.7338 36.504 60.8298 36.36C61.0058 36.104 61.1498 35.944 61.2618 35.88C61.3738 35.8 61.4778 35.76 61.5738 35.76C61.7818 35.76 61.8618 35.872 61.8138 36.096L59.6778 45.288C59.4378 46.328 59.5978 46.848 60.1578 46.848C60.5258 46.848 60.8538 46.6 61.1418 46.104C61.4458 45.608 61.7498 44.84 62.0538 43.8C62.1018 43.624 62.2058 43.536 62.3658 43.536C62.4778 43.536 62.5498 43.584 62.5818 43.68C62.6138 43.776 62.6138 43.888 62.5818 44.016C62.2778 45.52 61.8698 46.6 61.3578 47.256C60.8458 47.896 60.2298 48.216 59.5098 48.216C58.8858 48.216 58.4378 47.952 58.1658 47.424C57.9098 46.896 57.8858 46.176 58.0938 45.264L58.4058 43.944C58.4378 43.832 58.4138 43.768 58.3338 43.752C58.2698 43.736 58.2138 43.776 58.1658 43.872C57.2858 45.488 56.5018 46.616 55.8138 47.256C55.1418 47.896 54.5018 48.216 53.8938 48.216ZM54.4938 46.992C54.8778 46.992 55.3018 46.76 55.7658 46.296C56.2298 45.832 56.6858 45.232 57.1338 44.496C57.5978 43.76 58.0218 42.968 58.4058 42.12C58.7898 41.272 59.0938 40.456 59.3178 39.672C59.5578 38.888 59.6778 38.224 59.6778 37.68C59.6778 36.704 59.3338 36.216 58.6458 36.216C58.2298 36.216 57.7898 36.408 57.3258 36.792C56.8618 37.16 56.4138 37.664 55.9818 38.304C55.5658 38.944 55.1818 39.672 54.8298 40.488C54.4938 41.288 54.2218 42.128 54.0138 43.008C53.8058 43.872 53.7018 44.72 53.7018 45.552C53.7018 46.112 53.7658 46.496 53.8938 46.704C54.0378 46.896 54.2378 46.992 54.4938 46.992ZM13.16 74.216C12.568 74.216 12.112 73.968 11.792 73.472C11.472 72.976 11.312 72.248 11.312 71.288C11.312 70.376 11.44 69.464 11.696 68.552C11.952 67.624 12.304 66.744 12.752 65.912C13.2 65.08 13.704 64.344 14.264 63.704C14.84 63.064 15.44 62.56 16.064 62.192C16.704 61.808 17.336 61.616 17.96 61.616C18.392 61.616 18.768 61.728 19.088 61.952C19.312 62.096 19.448 62.048 19.496 61.808L20.264 58.64C20.344 58.352 20.344 58.152 20.264 58.04C20.2 57.928 20.056 57.864 19.832 57.848L19.112 57.776C18.872 57.76 18.768 57.656 18.8 57.464C18.832 57.32 18.944 57.232 19.136 57.2C19.712 57.104 20.224 56.992 20.672 56.864C21.12 56.72 21.48 56.536 21.752 56.312C21.88 56.216 22 56.168 22.112 56.168C22.304 56.168 22.376 56.288 22.328 56.528L18.92 71.288C18.68 72.328 18.84 72.848 19.4 72.848C19.768 72.848 20.096 72.6 20.384 72.104C20.688 71.608 20.992 70.84 21.296 69.8C21.344 69.624 21.448 69.536 21.608 69.536C21.72 69.536 21.792 69.584 21.824 69.68C21.856 69.776 21.856 69.888 21.824 70.016C21.52 71.52 21.096 72.6 20.552 73.256C20.024 73.896 19.4 74.216 18.68 74.216C18.056 74.216 17.608 73.952 17.336 73.424C17.08 72.896 17.056 72.176 17.264 71.264L17.528 70.16C17.56 70.048 17.536 69.984 17.456 69.968C17.392 69.952 17.336 69.992 17.288 70.088C16.52 71.592 15.792 72.656 15.104 73.28C14.416 73.904 13.768 74.216 13.16 74.216ZM13.736 72.992C14.12 72.992 14.544 72.76 15.008 72.296C15.472 71.832 15.928 71.232 16.376 70.496C16.84 69.76 17.264 68.968 17.648 68.12C18.032 67.272 18.336 66.456 18.56 65.672C18.8 64.888 18.92 64.224 18.92 63.68C18.92 62.704 18.576 62.216 17.888 62.216C17.472 62.216 17.032 62.408 16.568 62.792C16.104 63.16 15.656 63.664 15.224 64.304C14.808 64.944 14.424 65.672 14.072 66.488C13.736 67.288 13.464 68.128 13.256 69.008C13.048 69.872 12.944 70.72 12.944 71.552C12.944 72.112 13.016 72.496 13.16 72.704C13.32 72.896 13.512 72.992 13.736 72.992ZM25.4632 74.216C24.6152 74.216 23.9352 73.888 23.4232 73.232C22.9112 72.56 22.6552 71.616 22.6552 70.4C22.6552 69.344 22.8392 68.296 23.2072 67.256C23.5912 66.216 24.0872 65.272 24.6952 64.424C25.3032 63.576 25.9672 62.896 26.6872 62.384C27.4232 61.872 28.1352 61.616 28.8232 61.616C29.5752 61.616 30.1112 61.8 30.4312 62.168C30.7672 62.52 30.9352 63 30.9352 63.608C30.9352 64.328 30.6792 65.048 30.1672 65.768C29.6712 66.472 28.9672 67.104 28.0552 67.664C27.1592 68.224 26.1032 68.64 24.8872 68.912C24.5352 68.992 24.3512 69.192 24.3352 69.512C24.3192 69.624 24.3112 69.744 24.3112 69.872C24.3112 69.984 24.3112 70.096 24.3112 70.208C24.3112 71.12 24.4632 71.808 24.7672 72.272C25.0872 72.736 25.5192 72.968 26.0632 72.968C26.6712 72.968 27.2552 72.688 27.8152 72.128C28.3912 71.568 28.8712 70.776 29.2552 69.752C29.3032 69.608 29.3992 69.536 29.5432 69.536C29.6392 69.536 29.6952 69.576 29.7112 69.656C29.7432 69.736 29.7432 69.832 29.7112 69.944C29.1992 71.352 28.5752 72.416 27.8392 73.136C27.1192 73.856 26.3272 74.216 25.4632 74.216ZM24.5752 68C24.5432 68.112 24.5592 68.208 24.6232 68.288C24.7032 68.352 24.7992 68.368 24.9112 68.336C25.9032 68.064 26.7352 67.656 27.4072 67.112C28.0792 66.552 28.5832 65.928 28.9192 65.24C29.2712 64.552 29.4472 63.88 29.4472 63.224C29.4472 62.552 29.1832 62.216 28.6552 62.216C28.1912 62.216 27.6872 62.488 27.1432 63.032C26.5992 63.576 26.0952 64.288 25.6312 65.168C25.1672 66.048 24.8152 66.992 24.5752 68ZM33.4949 74.216C32.9669 74.216 32.4069 74.136 31.8149 73.976C31.2389 73.816 30.7989 73.616 30.4949 73.376C30.3829 73.28 30.3349 73.136 30.3509 72.944L30.8789 69.8C30.9109 69.592 31.0069 69.488 31.1669 69.488C31.3429 69.488 31.4309 69.6 31.4309 69.824L31.4789 70.976C31.5109 71.888 31.7269 72.56 32.1269 72.992C32.5429 73.408 33.0469 73.616 33.6389 73.616C34.1509 73.616 34.5909 73.456 34.9589 73.136C35.3269 72.8 35.5109 72.312 35.5109 71.672C35.5109 71.304 35.4549 70.968 35.3429 70.664C35.2309 70.344 35.0549 70.008 34.8149 69.656C34.5749 69.288 34.2469 68.848 33.8309 68.336C33.2869 67.632 32.8789 67.032 32.6069 66.536C32.3509 66.024 32.2229 65.496 32.2229 64.952C32.2229 63.944 32.5349 63.136 33.1589 62.528C33.7989 61.92 34.6069 61.616 35.5829 61.616C36.0149 61.616 36.4309 61.68 36.8309 61.808C37.2469 61.936 37.5909 62.128 37.8629 62.384C38.0069 62.496 38.0549 62.64 38.0069 62.816L37.3349 66.032C37.2869 66.24 37.1909 66.344 37.0469 66.344C36.9029 66.344 36.8149 66.232 36.7829 66.008L36.7109 64.856C36.6469 63.896 36.5189 63.208 36.3269 62.792C36.1509 62.376 35.7749 62.168 35.1989 62.168C34.6869 62.168 34.2709 62.344 33.9509 62.696C33.6309 63.048 33.4709 63.472 33.4709 63.968C33.4709 64.496 33.6149 64.984 33.9029 65.432C34.1909 65.864 34.5829 66.416 35.0789 67.088C35.7349 67.952 36.1749 68.64 36.3989 69.152C36.6389 69.664 36.7589 70.184 36.7589 70.712C36.7589 71.384 36.6069 71.984 36.3029 72.512C36.0149 73.04 35.6229 73.456 35.1269 73.76C34.6309 74.064 34.0869 74.216 33.4949 74.216ZM40.1131 74.216C39.5211 74.216 39.0651 73.968 38.7451 73.472C38.4251 72.976 38.2651 72.248 38.2651 71.288C38.2651 70.376 38.3931 69.464 38.6491 68.552C38.9051 67.624 39.2571 66.744 39.7051 65.912C40.1531 65.08 40.6571 64.344 41.2171 63.704C41.7931 63.064 42.3931 62.56 43.0171 62.192C43.6571 61.808 44.2891 61.616 44.9131 61.616C45.3451 61.616 45.7211 61.728 46.0411 61.952C46.2651 62.096 46.4011 62.048 46.4491 61.808L47.2171 58.64C47.2971 58.352 47.2971 58.152 47.2171 58.04C47.1531 57.928 47.0091 57.864 46.7851 57.848L46.0651 57.776C45.8251 57.76 45.7211 57.656 45.7531 57.464C45.7851 57.32 45.8971 57.232 46.0891 57.2C46.6651 57.104 47.1771 56.992 47.6251 56.864C48.0731 56.72 48.4331 56.536 48.7051 56.312C48.8331 56.216 48.9531 56.168 49.0651 56.168C49.2571 56.168 49.3291 56.288 49.2811 56.528L45.8731 71.288C45.6331 72.328 45.7931 72.848 46.3531 72.848C46.7211 72.848 47.0491 72.6 47.3371 72.104C47.6411 71.608 47.9451 70.84 48.2491 69.8C48.2971 69.624 48.4011 69.536 48.5611 69.536C48.6731 69.536 48.7451 69.584 48.7771 69.68C48.8091 69.776 48.8091 69.888 48.7771 70.016C48.4731 71.52 48.0491 72.6 47.5051 73.256C46.9771 73.896 46.3531 74.216 45.6331 74.216C45.0091 74.216 44.5611 73.952 44.2891 73.424C44.0331 72.896 44.0091 72.176 44.2171 71.264L44.4811 70.16C44.5131 70.048 44.4891 69.984 44.4091 69.968C44.3451 69.952 44.2891 69.992 44.2411 70.088C43.4731 71.592 42.7451 72.656 42.0571 73.28C41.3691 73.904 40.7211 74.216 40.1131 74.216ZM40.6891 72.992C41.0731 72.992 41.4971 72.76 41.9611 72.296C42.4251 71.832 42.8811 71.232 43.3291 70.496C43.7931 69.76 44.2171 68.968 44.6011 68.12C44.9851 67.272 45.2891 66.456 45.5131 65.672C45.7531 64.888 45.8731 64.224 45.8731 63.68C45.8731 62.704 45.5291 62.216 44.8411 62.216C44.4251 62.216 43.9851 62.408 43.5211 62.792C43.0571 63.16 42.6091 63.664 42.1771 64.304C41.7611 64.944 41.3771 65.672 41.0251 66.488C40.6891 67.288 40.4171 68.128 40.2091 69.008C40.0011 69.872 39.8971 70.72 39.8971 71.552C39.8971 72.112 39.9691 72.496 40.1131 72.704C40.2731 72.896 40.4651 72.992 40.6891 72.992ZM52.4163 74.216C51.5683 74.216 50.8883 73.888 50.3763 73.232C49.8643 72.56 49.6083 71.616 49.6083 70.4C49.6083 69.344 49.7923 68.296 50.1603 67.256C50.5443 66.216 51.0403 65.272 51.6483 64.424C52.2563 63.576 52.9203 62.896 53.6403 62.384C54.3763 61.872 55.0883 61.616 55.7763 61.616C56.5283 61.616 57.0643 61.8 57.3843 62.168C57.7203 62.52 57.8883 63 57.8883 63.608C57.8883 64.328 57.6323 65.048 57.1203 65.768C56.6243 66.472 55.9203 67.104 55.0083 67.664C54.1123 68.224 53.0563 68.64 51.8403 68.912C51.4883 68.992 51.3043 69.192 51.2883 69.512C51.2723 69.624 51.2643 69.744 51.2643 69.872C51.2643 69.984 51.2643 70.096 51.2643 70.208C51.2643 71.12 51.4163 71.808 51.7203 72.272C52.0403 72.736 52.4723 72.968 53.0163 72.968C53.6243 72.968 54.2083 72.688 54.7683 72.128C55.3443 71.568 55.8243 70.776 56.2083 69.752C56.2563 69.608 56.3523 69.536 56.4963 69.536C56.5923 69.536 56.6483 69.576 56.6643 69.656C56.6963 69.736 56.6963 69.832 56.6643 69.944C56.1523 71.352 55.5283 72.416 54.7923 73.136C54.0723 73.856 53.2803 74.216 52.4163 74.216ZM51.5283 68C51.4963 68.112 51.5123 68.208 51.5763 68.288C51.6563 68.352 51.7523 68.368 51.8643 68.336C52.8563 68.064 53.6883 67.656 54.3603 67.112C55.0323 66.552 55.5363 65.928 55.8723 65.24C56.2243 64.552 56.4003 63.88 56.4003 63.224C56.4003 62.552 56.1363 62.216 55.6083 62.216C55.1443 62.216 54.6403 62.488 54.0963 63.032C53.5523 63.576 53.0483 64.288 52.5843 65.168C52.1203 66.048 51.7683 66.992 51.5283 68ZM63.8782 74.216C63.3022 74.216 62.8542 73.968 62.5342 73.472C62.2142 72.976 62.0542 72.248 62.0542 71.288C62.0542 70.376 62.1822 69.464 62.4382 68.552C62.6942 67.624 63.0462 66.744 63.4942 65.912C63.9422 65.08 64.4462 64.344 65.0062 63.704C65.5822 63.064 66.1822 62.56 66.8062 62.192C67.4462 61.808 68.0782 61.616 68.7022 61.616C69.0062 61.616 69.2942 61.68 69.5662 61.808C69.8382 61.92 70.0622 62.104 70.2382 62.36C70.3342 62.504 70.4302 62.576 70.5262 62.576C70.6222 62.576 70.7182 62.504 70.8142 62.36C70.9902 62.104 71.1342 61.944 71.2462 61.88C71.3582 61.8 71.4622 61.76 71.5582 61.76C71.7662 61.76 71.8462 61.872 71.7982 62.096L69.6622 71.288C69.4222 72.328 69.5822 72.848 70.1422 72.848C70.5102 72.848 70.8382 72.6 71.1262 72.104C71.4302 71.608 71.7342 70.84 72.0382 69.8C72.0862 69.624 72.1902 69.536 72.3502 69.536C72.4622 69.536 72.5342 69.584 72.5662 69.68C72.5982 69.776 72.5982 69.888 72.5662 70.016C72.2622 71.52 71.8542 72.6 71.3422 73.256C70.8302 73.896 70.2142 74.216 69.4942 74.216C68.8702 74.216 68.4222 73.952 68.1502 73.424C67.8942 72.896 67.8702 72.176 68.0782 71.264L68.3902 69.944C68.4222 69.832 68.3982 69.768 68.3182 69.752C68.2542 69.736 68.1982 69.776 68.1502 69.872C67.2702 71.488 66.4862 72.616 65.7982 73.256C65.1262 73.896 64.4862 74.216 63.8782 74.216ZM64.4782 72.992C64.8622 72.992 65.2862 72.76 65.7502 72.296C66.2142 71.832 66.6702 71.232 67.1182 70.496C67.5822 69.76 68.0062 68.968 68.3902 68.12C68.7742 67.272 69.0782 66.456 69.3022 65.672C69.5422 64.888 69.6622 64.224 69.6622 63.68C69.6622 62.704 69.3182 62.216 68.6302 62.216C68.2142 62.216 67.7742 62.408 67.3102 62.792C66.8462 63.16 66.3982 63.664 65.9662 64.304C65.5502 64.944 65.1662 65.672 64.8142 66.488C64.4782 67.288 64.2062 68.128 63.9982 69.008C63.7902 69.872 63.6862 70.72 63.6862 71.552C63.6862 72.112 63.7502 72.496 63.8782 72.704C64.0222 72.896 64.2222 72.992 64.4782 72.992ZM76.3254 78.92C76.1174 78.92 76.0134 78.832 76.0134 78.656C76.0134 78.496 76.1414 78.4 76.3974 78.368L76.9974 78.32C77.3174 78.288 77.5494 78.2 77.6934 78.056C77.8374 77.912 77.9494 77.664 78.0294 77.312L79.7334 69.968C79.7654 69.856 79.7414 69.792 79.6614 69.776C79.5974 69.76 79.5414 69.8 79.4934 69.896C78.9494 71 78.4294 71.864 77.9334 72.488C77.4534 73.112 76.9894 73.56 76.5414 73.832C76.1094 74.088 75.6854 74.216 75.2694 74.216C74.6774 74.216 74.2214 73.968 73.9014 73.472C73.5814 72.976 73.4214 72.248 73.4214 71.288C73.4214 70.376 73.5494 69.464 73.8054 68.552C74.0614 67.624 74.4134 66.744 74.8614 65.912C75.3094 65.08 75.8134 64.344 76.3734 63.704C76.9494 63.064 77.5494 62.56 78.1734 62.192C78.8134 61.808 79.4454 61.616 80.0694 61.616C80.3734 61.616 80.6614 61.68 80.9334 61.808C81.2054 61.92 81.4294 62.104 81.6054 62.36C81.7014 62.504 81.7974 62.576 81.8934 62.576C81.9894 62.576 82.0854 62.504 82.1814 62.36C82.3574 62.104 82.5014 61.944 82.6134 61.88C82.7254 61.8 82.8294 61.76 82.9254 61.76C83.1334 61.76 83.2134 61.872 83.1654 62.096L79.6374 77.312C79.5574 77.664 79.5574 77.896 79.6374 78.008C79.7334 78.136 79.9254 78.224 80.2134 78.272L80.6214 78.344C80.9094 78.392 81.0534 78.488 81.0534 78.632C81.0534 78.824 80.9174 78.92 80.6454 78.92H76.3254ZM75.8454 72.992C76.2294 72.992 76.6534 72.76 77.1174 72.296C77.5814 71.832 78.0374 71.232 78.4854 70.496C78.9494 69.76 79.3734 68.968 79.7574 68.12C80.1414 67.272 80.4454 66.456 80.6694 65.672C80.9094 64.888 81.0294 64.224 81.0294 63.68C81.0294 62.704 80.6854 62.216 79.9974 62.216C79.5814 62.216 79.1414 62.408 78.6774 62.792C78.2134 63.16 77.7654 63.664 77.3334 64.304C76.9174 64.944 76.5334 65.672 76.1814 66.488C75.8454 67.288 75.5734 68.128 75.3654 69.008C75.1574 69.872 75.0534 70.72 75.0534 71.552C75.0534 72.112 75.1254 72.496 75.2694 72.704C75.4294 72.896 75.6214 72.992 75.8454 72.992ZM86.0647 74.216C85.4727 74.216 85.0647 73.952 84.8407 73.424C84.6327 72.88 84.6487 72.168 84.8887 71.288L86.7847 64.328C86.9127 63.864 86.9447 63.504 86.8807 63.248C86.8167 62.992 86.6727 62.864 86.4487 62.864C86.0807 62.864 85.7047 63.144 85.3207 63.704C84.9527 64.264 84.6327 65.04 84.3607 66.032C84.3127 66.208 84.2087 66.296 84.0487 66.296C83.8247 66.296 83.7527 66.136 83.8327 65.816C84.2007 64.472 84.6807 63.44 85.2727 62.72C85.8807 61.984 86.5447 61.616 87.2647 61.616C87.8407 61.616 88.2247 61.88 88.4167 62.408C88.6087 62.936 88.5767 63.656 88.3207 64.568L86.4007 71.528C86.0967 72.632 86.2007 73.184 86.7127 73.184C87.0327 73.184 87.4007 72.968 87.8167 72.536C88.2327 72.104 88.6647 71.512 89.1127 70.76C89.5767 70.008 90.0327 69.152 90.4807 68.192C90.9287 67.232 91.3367 66.224 91.7047 65.168C92.0727 64.112 92.3767 63.064 92.6167 62.024C92.6647 61.848 92.7767 61.76 92.9527 61.76H93.9127C94.1367 61.76 94.2247 61.864 94.1767 62.072L91.9207 71.72C91.7447 72.472 91.8807 72.848 92.3287 72.848C93.0007 72.848 93.7047 71.832 94.4407 69.8C94.5047 69.592 94.6167 69.488 94.7767 69.488C94.8727 69.488 94.9367 69.528 94.9687 69.608C95.0167 69.688 95.0167 69.792 94.9687 69.92C94.5367 71.28 94.0247 72.336 93.4327 73.088C92.8407 73.84 92.2167 74.216 91.5607 74.216C90.4087 74.216 90.0247 73.376 90.4087 71.696L91.0327 69.032C91.0647 68.92 91.0407 68.856 90.9607 68.84C90.8967 68.824 90.8407 68.864 90.7927 68.96C89.8647 70.88 89.0087 72.24 88.2247 73.04C87.4407 73.824 86.7207 74.216 86.0647 74.216ZM98.4202 74.24C97.8922 74.24 97.5162 74.048 97.2922 73.664C97.0682 73.264 97.0602 72.616 97.2682 71.72L99.0442 64.112C99.1242 63.76 99.1322 63.488 99.0682 63.296C99.0202 63.088 98.8762 62.984 98.6362 62.984C98.3482 62.984 98.0282 63.2 97.6762 63.632C97.3402 64.048 96.9562 64.848 96.5242 66.032C96.4602 66.24 96.3482 66.344 96.1882 66.344C95.9482 66.344 95.8842 66.2 95.9962 65.912C96.3482 64.808 96.7162 63.944 97.1002 63.32C97.5002 62.696 97.9002 62.256 98.3002 62C98.7002 61.744 99.0682 61.616 99.4042 61.616C99.9642 61.616 100.356 61.816 100.58 62.216C100.804 62.6 100.812 63.24 100.604 64.136L98.8282 71.744C98.7482 72.096 98.7322 72.376 98.7802 72.584C98.8442 72.776 98.9962 72.872 99.2362 72.872C99.5242 72.872 99.8362 72.664 100.172 72.248C100.524 71.816 100.916 71.008 101.348 69.824C101.412 69.616 101.524 69.512 101.684 69.512C101.924 69.512 101.988 69.656 101.876 69.944C101.54 71.032 101.164 71.896 100.748 72.536C100.348 73.16 99.9482 73.6 99.5482 73.856C99.1482 74.112 98.7722 74.24 98.4202 74.24ZM98.9962 59.96C98.7082 60.072 98.5242 60.024 98.4442 59.816C98.3802 59.656 98.4842 59.48 98.7562 59.288L102.524 56.72C102.972 56.4 103.356 56.24 103.676 56.24C103.996 56.24 104.228 56.32 104.372 56.48C104.532 56.64 104.612 56.832 104.612 57.056C104.612 57.296 104.524 57.504 104.348 57.68C104.188 57.856 103.868 58.04 103.388 58.232L98.9962 59.96Z" fill="#262926"/>
<g clip-path="url(#clip0_2171_4676)">
<path d="M11.3169 23.1119C10.1812 21.3358 9.05219 19.5597 7.93644 17.7705C7.61102 17.2612 8.20874 17 8.66035 17C9.24479 17 10.0816 17.1959 10.427 17.7183C11.5958 19.4944 12.7514 21.2705 13.9004 23.0532C14.2391 23.5821 13.6015 23.8563 13.1499 23.8563C12.5522 23.8563 11.6622 23.6539 11.3169 23.1119Z" fill="#262926"/>
<path d="M8.08256 25.7304C6.27611 24.9338 4.4763 24.1306 2.67649 23.3209C2.34442 23.1707 1.56738 22.7136 1.9725 22.2761C2.37762 21.8386 3.29413 22.0672 3.72582 22.25C5.54556 23.0336 7.35865 23.8237 9.17838 24.6204C9.4374 24.7314 9.75618 24.9077 9.91558 25.1493C10.0218 25.3125 10.075 25.5541 9.91558 25.7043C9.47725 26.1157 8.57402 25.9459 8.09584 25.7304H8.08256Z" fill="#262926"/>
<path d="M5.80456 30.9869C4.37666 30.8433 2.94213 30.6996 1.51423 30.5494C1.17552 30.5103 0.796966 30.3927 0.511387 30.2164C0.338712 30.1119 0.0398502 29.8899 0.0066433 29.6679C-0.0730529 29.0802 0.7704 29.0737 1.1556 29.1063C2.58349 29.2304 4.01139 29.3675 5.43928 29.5112C5.78463 29.5438 6.17647 29.6744 6.46869 29.8573C6.64137 29.9617 6.95351 30.1903 6.98672 30.4254C7.06642 31.0261 6.20304 31.0392 5.8112 31L5.80456 30.9869Z" fill="#262926"/>
</g>
<g clip-path="url(#clip1_2171_4676)">
<path d="M82.558 44.1369C101.002 45.2718 119.653 42.4446 136.881 35.9419C141.739 34.1072 146.45 31.9528 151.085 29.6331C151.638 29.356 152.074 29.6899 152.013 30.2638C151.945 30.9445 151.32 31.7257 150.738 32.0432C134.24 40.9649 115.358 45.9666 96.5909 47.0246C91.2965 47.3263 85.9803 47.2969 80.6836 46.9659C79.9026 46.9197 80.4785 45.6383 80.6718 45.34C81.0765 44.7248 81.7622 44.0833 82.5506 44.1332L82.558 44.1369Z" fill="#262926"/>
<path d="M143.618 24.7452C147.835 25.1116 152.05 25.6142 156.236 26.2492C156.517 26.2964 156.631 26.5904 156.641 26.8332C156.673 29.0366 155.563 30.9517 154.236 32.6319C152.723 34.5405 150.941 36.262 149.283 38.0349C145.778 41.7722 142.371 45.6491 138.695 49.2286C138.354 49.564 137.588 49.9923 137.203 49.5186C136.817 49.0449 137.452 48.1313 137.738 47.7959C140.661 44.3762 143.863 41.1766 146.943 37.8889C148.441 36.293 149.935 34.7045 151.426 33.1049C152.656 31.7891 153.96 30.4364 153.942 28.5236L154.347 29.1076C150.168 28.4579 145.968 27.9443 141.747 27.5668C140.97 27.4949 141.531 26.243 141.739 25.9336C142.137 25.3332 142.84 24.6549 143.629 24.7231L143.618 24.7452Z" fill="#262926"/>
</g>
<defs>
<clipPath id="clip0_2171_4676">
<rect width="14" height="14" fill="white" transform="matrix(-1 0 0 1 14 17)"/>
</clipPath>
<clipPath id="clip1_2171_4676">
<rect width="52.0444" height="60.7184" fill="white" transform="matrix(-0.442021 0.897005 0.897005 0.442021 103.005 0)"/>
</clipPath>
</defs>
</svg>
