<svg width="168" height="85" viewBox="0 0 168 85" fill="none" xmlns="http://www.w3.org/2000/svg">
<path d="M9.472 53C9.248 53 9.136 52.92 9.136 52.76C9.136 52.584 9.296 52.472 9.616 52.424L10.096 52.352C10.448 52.304 10.688 52.224 10.816 52.112C10.96 51.984 11.064 51.752 11.128 51.416L14.392 37.304C14.472 36.968 14.472 36.744 14.392 36.632C14.312 36.52 14.112 36.432 13.792 36.368L13.312 36.272C13.104 36.224 13 36.136 13 36.008C13 35.816 13.144 35.72 13.432 35.72H21.448C21.864 35.72 22.032 35.904 21.952 36.272L21.208 40.256C21.16 40.528 21.032 40.664 20.824 40.664C20.6 40.664 20.504 40.56 20.536 40.352L20.608 39.512C20.688 38.696 20.616 38.056 20.392 37.592C20.184 37.128 19.864 36.8 19.432 36.608C19.016 36.416 18.528 36.32 17.968 36.32C17.328 36.32 16.864 36.416 16.576 36.608C16.288 36.784 16.088 37.104 15.976 37.568L14.656 43.352C14.608 43.576 14.696 43.688 14.92 43.688H16.144C16.848 43.688 17.36 43.312 17.68 42.56L18.208 41.36C18.288 41.152 18.416 41.048 18.592 41.048C18.688 41.048 18.76 41.088 18.808 41.168C18.872 41.232 18.888 41.328 18.856 41.456L17.608 46.856C17.528 47.128 17.392 47.264 17.2 47.264C17.008 47.264 16.912 47.16 16.912 46.952L16.936 45.776C16.952 45.216 16.88 44.848 16.72 44.672C16.576 44.496 16.32 44.408 15.952 44.408H14.752C14.512 44.408 14.368 44.52 14.32 44.744L12.928 50.768C12.8 51.344 12.856 51.76 13.096 52.016C13.336 52.272 13.848 52.4 14.632 52.4C15.112 52.4 15.584 52.328 16.048 52.184C16.528 52.024 16.976 51.728 17.392 51.296C17.824 50.864 18.216 50.24 18.568 49.424L19.144 48.08C19.224 47.872 19.352 47.768 19.528 47.768C19.768 47.768 19.848 47.904 19.768 48.176L18.544 52.448C18.448 52.816 18.208 53 17.824 53H9.472ZM34.8012 53.216C34.2252 53.216 33.7932 52.976 33.5052 52.496C33.2172 52.016 33.2012 51.272 33.4572 50.264L35.3052 43.304C35.4812 42.68 35.5052 42.248 35.3772 42.008C35.2652 41.768 35.0972 41.648 34.8732 41.648C34.5532 41.648 34.1852 41.872 33.7692 42.32C33.3532 42.752 32.9132 43.344 32.4492 44.096C32.0012 44.848 31.5612 45.704 31.1292 46.664C30.6972 47.624 30.2972 48.624 29.9292 49.664C29.5612 50.704 29.2572 51.728 29.0172 52.736C28.9692 52.912 28.8572 53 28.6812 53H27.7452C27.5212 53 27.4332 52.896 27.4812 52.688L29.6892 43.304C29.8332 42.68 29.8492 42.248 29.7372 42.008C29.6412 41.768 29.4812 41.648 29.2572 41.648C28.9532 41.648 28.5932 41.872 28.1772 42.32C27.7612 42.752 27.3292 43.344 26.8812 44.096C26.4332 44.848 25.9932 45.704 25.5612 46.664C25.1292 47.624 24.7292 48.624 24.3612 49.664C23.9932 50.704 23.6972 51.728 23.4732 52.736C23.4252 52.912 23.3132 53 23.1372 53H22.1532C21.9292 53 21.8412 52.896 21.8892 52.688L24.1692 43.112C24.2492 42.76 24.2572 42.488 24.1932 42.296C24.1452 42.088 24.0012 41.984 23.7612 41.984C23.4732 41.984 23.1532 42.2 22.8012 42.632C22.4652 43.048 22.0812 43.848 21.6492 45.032C21.5852 45.24 21.4732 45.344 21.3132 45.344C21.0732 45.344 21.0092 45.2 21.1212 44.912C21.4732 43.808 21.8412 42.944 22.2252 42.32C22.6252 41.696 23.0252 41.256 23.4252 41C23.8252 40.744 24.1932 40.616 24.5292 40.616C25.0572 40.616 25.4332 40.816 25.6572 41.216C25.8812 41.6 25.8892 42.24 25.6812 43.136L25.0812 45.728C25.0652 45.84 25.0892 45.904 25.1532 45.92C25.2172 45.936 25.2732 45.896 25.3212 45.8C26.2492 43.88 27.0892 42.536 27.8412 41.768C28.5932 41 29.2812 40.616 29.9052 40.616C30.4972 40.616 30.9132 40.856 31.1532 41.336C31.4092 41.816 31.4252 42.552 31.2012 43.544L30.6972 45.728C30.6812 45.84 30.7052 45.904 30.7692 45.92C30.8332 45.936 30.8892 45.896 30.9372 45.8C31.5452 44.504 32.1132 43.48 32.6412 42.728C33.1852 41.96 33.6972 41.416 34.1772 41.096C34.6572 40.776 35.1052 40.616 35.5212 40.616C36.1132 40.616 36.5452 40.856 36.8172 41.336C37.0892 41.816 37.0892 42.552 36.8172 43.544L34.9932 50.504C34.8812 50.952 34.8732 51.288 34.9692 51.512C35.0652 51.736 35.2412 51.848 35.4972 51.848C35.8172 51.848 36.1292 51.64 36.4332 51.224C36.7532 50.792 37.0812 49.984 37.4172 48.8C37.4652 48.624 37.5692 48.536 37.7292 48.536C37.8572 48.536 37.9292 48.584 37.9452 48.68C37.9772 48.776 37.9772 48.888 37.9452 49.016C37.6412 50.104 37.3132 50.96 36.9612 51.584C36.6092 52.192 36.2492 52.616 35.8812 52.856C35.5292 53.096 35.1692 53.216 34.8012 53.216ZM36.676 57.92C36.468 57.92 36.364 57.832 36.364 57.656C36.364 57.496 36.492 57.4 36.748 57.368L37.084 57.32C37.404 57.272 37.644 57.176 37.804 57.032C37.948 56.904 38.06 56.664 38.14 56.312L41.332 42.536C41.364 42.408 41.34 42.312 41.26 42.248C41.196 42.168 41.1 42.168 40.972 42.248C40.812 42.328 40.66 42.416 40.516 42.512C40.372 42.592 40.228 42.68 40.084 42.776C39.94 42.872 39.82 42.904 39.724 42.872C39.628 42.824 39.58 42.744 39.58 42.632C39.58 42.52 39.66 42.408 39.82 42.296C40.268 41.992 40.732 41.728 41.212 41.504C41.484 41.376 41.652 41.168 41.716 40.88L42.028 39.512C42.108 39.176 42.316 39.008 42.652 39.008H43.084C43.276 39.008 43.42 39.064 43.516 39.176C43.612 39.288 43.636 39.448 43.588 39.656L43.42 40.352C43.372 40.624 43.476 40.736 43.732 40.688C44.1 40.64 44.452 40.616 44.788 40.616C45.972 40.616 46.94 40.952 47.692 41.624C48.444 42.296 48.82 43.328 48.82 44.72C48.82 45.808 48.62 46.864 48.22 47.888C47.82 48.896 47.292 49.8 46.636 50.6C45.98 51.4 45.26 52.04 44.476 52.52C43.692 52.984 42.908 53.216 42.124 53.216C41.692 53.216 41.284 53.128 40.9 52.952C40.66 52.84 40.516 52.904 40.468 53.144L39.748 56.312C39.668 56.664 39.668 56.896 39.748 57.008C39.844 57.12 40.044 57.2 40.348 57.248L40.972 57.344C41.26 57.392 41.404 57.488 41.404 57.632C41.404 57.824 41.268 57.92 40.996 57.92H36.676ZM41.14 50.24C40.852 51.824 41.196 52.616 42.172 52.616C42.732 52.616 43.3 52.384 43.876 51.92C44.452 51.44 44.988 50.808 45.484 50.024C45.98 49.224 46.38 48.328 46.684 47.336C46.988 46.344 47.14 45.328 47.14 44.288C47.14 43.216 46.908 42.448 46.444 41.984C45.98 41.504 45.3 41.264 44.404 41.264C43.604 41.264 43.148 41.536 43.036 42.08L41.14 50.24ZM54.2007 38.48C53.8967 38.48 53.6407 38.376 53.4327 38.168C53.2407 37.944 53.1447 37.68 53.1447 37.376C53.1447 36.944 53.2727 36.6 53.5287 36.344C53.8007 36.088 54.1047 35.96 54.4407 35.96C54.7607 35.96 55.0247 36.064 55.2327 36.272C55.4567 36.464 55.5687 36.72 55.5687 37.04C55.5687 37.488 55.4327 37.84 55.1607 38.096C54.8887 38.352 54.5687 38.48 54.2007 38.48ZM52.2327 53.24C51.7047 53.24 51.3287 53.048 51.1047 52.664C50.8807 52.264 50.8727 51.616 51.0807 50.72L52.8567 43.112C52.9367 42.76 52.9447 42.488 52.8807 42.296C52.8327 42.088 52.6887 41.984 52.4487 41.984C52.1607 41.984 51.8407 42.2 51.4887 42.632C51.1527 43.048 50.7687 43.848 50.3367 45.032C50.2727 45.24 50.1607 45.344 50.0007 45.344C49.7607 45.344 49.6967 45.2 49.8087 44.912C50.1607 43.808 50.5287 42.944 50.9127 42.32C51.3127 41.696 51.7127 41.256 52.1127 41C52.5127 40.744 52.8807 40.616 53.2167 40.616C53.7767 40.616 54.1687 40.816 54.3927 41.216C54.6167 41.6 54.6247 42.24 54.4167 43.136L52.6407 50.744C52.5607 51.096 52.5447 51.376 52.5927 51.584C52.6567 51.776 52.8087 51.872 53.0487 51.872C53.3367 51.872 53.6487 51.664 53.9847 51.248C54.3367 50.816 54.7287 50.008 55.1607 48.824C55.2247 48.616 55.3367 48.512 55.4967 48.512C55.7367 48.512 55.8007 48.656 55.6887 48.944C55.3527 50.032 54.9767 50.896 54.5607 51.536C54.1607 52.16 53.7607 52.6 53.3607 52.856C52.9607 53.112 52.5847 53.24 52.2327 53.24ZM59.3148 53.216C58.4668 53.216 57.7868 52.888 57.2748 52.232C56.7628 51.56 56.5068 50.616 56.5068 49.4C56.5068 48.344 56.6908 47.296 57.0588 46.256C57.4428 45.216 57.9388 44.272 58.5468 43.424C59.1548 42.576 59.8188 41.896 60.5388 41.384C61.2748 40.872 61.9868 40.616 62.6748 40.616C63.4268 40.616 63.9628 40.8 64.2828 41.168C64.6188 41.52 64.7868 42 64.7868 42.608C64.7868 43.328 64.5308 44.048 64.0188 44.768C63.5228 45.472 62.8188 46.104 61.9068 46.664C61.0108 47.224 59.9548 47.64 58.7388 47.912C58.3868 47.992 58.2028 48.192 58.1868 48.512C58.1708 48.624 58.1628 48.744 58.1628 48.872C58.1628 48.984 58.1628 49.096 58.1628 49.208C58.1628 50.12 58.3148 50.808 58.6188 51.272C58.9388 51.736 59.3708 51.968 59.9148 51.968C60.5228 51.968 61.1068 51.688 61.6668 51.128C62.2428 50.568 62.7228 49.776 63.1068 48.752C63.1548 48.608 63.2508 48.536 63.3948 48.536C63.4908 48.536 63.5468 48.576 63.5628 48.656C63.5948 48.736 63.5948 48.832 63.5628 48.944C63.0508 50.352 62.4268 51.416 61.6908 52.136C60.9708 52.856 60.1788 53.216 59.3148 53.216ZM58.4268 47C58.3948 47.112 58.4108 47.208 58.4748 47.288C58.5548 47.352 58.6508 47.368 58.7628 47.336C59.7548 47.064 60.5868 46.656 61.2588 46.112C61.9308 45.552 62.4348 44.928 62.7708 44.24C63.1228 43.552 63.2988 42.88 63.2988 42.224C63.2988 41.552 63.0348 41.216 62.5068 41.216C62.0428 41.216 61.5388 41.488 60.9948 42.032C60.4508 42.576 59.9468 43.288 59.4828 44.168C59.0188 45.048 58.6668 45.992 58.4268 47ZM64.5625 53.216C64.3545 53.216 64.2505 53.096 64.2505 52.856C64.2505 52.552 64.3785 52.256 64.6345 51.968C64.9065 51.664 65.2505 51.392 65.6665 51.152L71.5465 43.376C71.6265 43.248 71.6425 43.168 71.5945 43.136C71.5625 43.088 71.4905 43.088 71.3785 43.136C71.1865 43.216 70.9625 43.256 70.7065 43.256C70.2905 43.256 69.8905 43.176 69.5065 43.016C69.1385 42.84 68.7945 42.672 68.4745 42.512C68.1545 42.352 67.8425 42.272 67.5385 42.272C67.0745 42.272 66.7305 42.496 66.5065 42.944C66.2825 43.376 66.1705 44.072 66.1705 45.032C66.1705 45.24 66.0745 45.344 65.8825 45.344C65.6905 45.344 65.5945 45.2 65.5945 44.912C65.5945 43.808 65.7225 42.944 65.9785 42.32C66.2505 41.696 66.5865 41.256 66.9865 41C67.3865 40.744 67.7945 40.616 68.2105 40.616C68.6745 40.616 69.0585 40.704 69.3625 40.88C69.6665 41.056 69.9385 41.264 70.1785 41.504C70.4185 41.728 70.6745 41.928 70.9465 42.104C71.2185 42.28 71.5705 42.368 72.0025 42.368C72.1945 42.368 72.3225 42.272 72.3865 42.08C72.5625 41.712 72.7865 41.376 73.0585 41.072C73.3305 40.768 73.5865 40.616 73.8265 40.616C74.0825 40.616 74.2105 40.744 74.2105 41C74.2105 41.224 74.1225 41.424 73.9465 41.6C73.7865 41.776 73.5545 41.992 73.2505 42.248C72.9625 42.504 72.6345 42.88 72.2665 43.376L66.8185 50.624C66.7545 50.704 66.7465 50.776 66.7945 50.84C66.8425 50.888 66.9225 50.888 67.0345 50.84C67.2265 50.76 67.4425 50.72 67.6825 50.72C68.0345 50.72 68.4025 50.792 68.7865 50.936C69.1705 51.064 69.5465 51.2 69.9145 51.344C70.2985 51.488 70.6345 51.56 70.9225 51.56C71.3865 51.56 71.7305 51.352 71.9545 50.936C72.1785 50.504 72.2905 49.808 72.2905 48.848C72.2905 48.64 72.3865 48.536 72.5785 48.536C72.7705 48.536 72.8665 48.68 72.8665 48.968C72.8665 50.04 72.7305 50.888 72.4585 51.512C72.2025 52.136 71.8745 52.576 71.4745 52.832C71.0745 53.088 70.6665 53.216 70.2505 53.216C69.8185 53.216 69.4425 53.136 69.1225 52.976C68.8025 52.8 68.5065 52.608 68.2345 52.4C67.9785 52.192 67.7305 52.008 67.4905 51.848C67.2505 51.688 66.9865 51.608 66.6985 51.608C66.3305 51.608 66.0745 51.736 65.9305 51.992C65.7705 52.328 65.5545 52.616 65.2825 52.856C65.0265 53.096 64.7865 53.216 64.5625 53.216ZM75.9329 53.216C75.3569 53.216 74.9089 52.968 74.5889 52.472C74.2689 51.976 74.1089 51.248 74.1089 50.288C74.1089 49.376 74.2369 48.464 74.4929 47.552C74.7489 46.624 75.1009 45.744 75.5489 44.912C75.9969 44.08 76.5009 43.344 77.0609 42.704C77.6369 42.064 78.2369 41.56 78.8609 41.192C79.5009 40.808 80.1329 40.616 80.7569 40.616C81.0609 40.616 81.3489 40.68 81.6209 40.808C81.8929 40.92 82.1169 41.104 82.2929 41.36C82.3889 41.504 82.4849 41.576 82.5809 41.576C82.6769 41.576 82.7729 41.504 82.8689 41.36C83.0449 41.104 83.1889 40.944 83.3009 40.88C83.4129 40.8 83.5169 40.76 83.6129 40.76C83.8209 40.76 83.9009 40.872 83.8529 41.096L81.7169 50.288C81.4769 51.328 81.6369 51.848 82.1969 51.848C82.5649 51.848 82.8929 51.6 83.1809 51.104C83.4849 50.608 83.7889 49.84 84.0929 48.8C84.1409 48.624 84.2449 48.536 84.4049 48.536C84.5169 48.536 84.5889 48.584 84.6209 48.68C84.6529 48.776 84.6529 48.888 84.6209 49.016C84.3169 50.52 83.9089 51.6 83.3969 52.256C82.8849 52.896 82.2689 53.216 81.5489 53.216C80.9249 53.216 80.4769 52.952 80.2049 52.424C79.9489 51.896 79.9249 51.176 80.1329 50.264L80.4449 48.944C80.4769 48.832 80.4529 48.768 80.3729 48.752C80.3089 48.736 80.2529 48.776 80.2049 48.872C79.3249 50.488 78.5409 51.616 77.8529 52.256C77.1809 52.896 76.5409 53.216 75.9329 53.216ZM76.5329 51.992C76.9169 51.992 77.3409 51.76 77.8049 51.296C78.2689 50.832 78.7249 50.232 79.1729 49.496C79.6369 48.76 80.0609 47.968 80.4449 47.12C80.8289 46.272 81.1329 45.456 81.3569 44.672C81.5969 43.888 81.7169 43.224 81.7169 42.68C81.7169 41.704 81.3729 41.216 80.6849 41.216C80.2689 41.216 79.8289 41.408 79.3649 41.792C78.9009 42.16 78.4529 42.664 78.0209 43.304C77.6049 43.944 77.2209 44.672 76.8689 45.488C76.5329 46.288 76.2609 47.128 76.0529 48.008C75.8449 48.872 75.7409 49.72 75.7409 50.552C75.7409 51.112 75.8049 51.496 75.9329 51.704C76.0769 51.896 76.2769 51.992 76.5329 51.992ZM12.16 79.216C11.568 79.216 11.112 78.968 10.792 78.472C10.472 77.976 10.312 77.248 10.312 76.288C10.312 75.376 10.44 74.464 10.696 73.552C10.952 72.624 11.304 71.744 11.752 70.912C12.2 70.08 12.704 69.344 13.264 68.704C13.84 68.064 14.44 67.56 15.064 67.192C15.704 66.808 16.336 66.616 16.96 66.616C17.392 66.616 17.768 66.728 18.088 66.952C18.312 67.096 18.448 67.048 18.496 66.808L19.264 63.64C19.344 63.352 19.344 63.152 19.264 63.04C19.2 62.928 19.056 62.864 18.832 62.848L18.112 62.776C17.872 62.76 17.768 62.656 17.8 62.464C17.832 62.32 17.944 62.232 18.136 62.2C18.712 62.104 19.224 61.992 19.672 61.864C20.12 61.72 20.48 61.536 20.752 61.312C20.88 61.216 21 61.168 21.112 61.168C21.304 61.168 21.376 61.288 21.328 61.528L17.92 76.288C17.68 77.328 17.84 77.848 18.4 77.848C18.768 77.848 19.096 77.6 19.384 77.104C19.688 76.608 19.992 75.84 20.296 74.8C20.344 74.624 20.448 74.536 20.608 74.536C20.72 74.536 20.792 74.584 20.824 74.68C20.856 74.776 20.856 74.888 20.824 75.016C20.52 76.52 20.096 77.6 19.552 78.256C19.024 78.896 18.4 79.216 17.68 79.216C17.056 79.216 16.608 78.952 16.336 78.424C16.08 77.896 16.056 77.176 16.264 76.264L16.528 75.16C16.56 75.048 16.536 74.984 16.456 74.968C16.392 74.952 16.336 74.992 16.288 75.088C15.52 76.592 14.792 77.656 14.104 78.28C13.416 78.904 12.768 79.216 12.16 79.216ZM12.736 77.992C13.12 77.992 13.544 77.76 14.008 77.296C14.472 76.832 14.928 76.232 15.376 75.496C15.84 74.76 16.264 73.968 16.648 73.12C17.032 72.272 17.336 71.456 17.56 70.672C17.8 69.888 17.92 69.224 17.92 68.68C17.92 67.704 17.576 67.216 16.888 67.216C16.472 67.216 16.032 67.408 15.568 67.792C15.104 68.16 14.656 68.664 14.224 69.304C13.808 69.944 13.424 70.672 13.072 71.488C12.736 72.288 12.464 73.128 12.256 74.008C12.048 74.872 11.944 75.72 11.944 76.552C11.944 77.112 12.016 77.496 12.16 77.704C12.32 77.896 12.512 77.992 12.736 77.992ZM24.4632 79.216C23.6152 79.216 22.9352 78.888 22.4232 78.232C21.9112 77.56 21.6552 76.616 21.6552 75.4C21.6552 74.344 21.8392 73.296 22.2072 72.256C22.5912 71.216 23.0872 70.272 23.6952 69.424C24.3032 68.576 24.9672 67.896 25.6872 67.384C26.4232 66.872 27.1352 66.616 27.8232 66.616C28.5752 66.616 29.1112 66.8 29.4312 67.168C29.7672 67.52 29.9352 68 29.9352 68.608C29.9352 69.328 29.6792 70.048 29.1672 70.768C28.6712 71.472 27.9672 72.104 27.0552 72.664C26.1592 73.224 25.1032 73.64 23.8872 73.912C23.5352 73.992 23.3512 74.192 23.3352 74.512C23.3192 74.624 23.3112 74.744 23.3112 74.872C23.3112 74.984 23.3112 75.096 23.3112 75.208C23.3112 76.12 23.4632 76.808 23.7672 77.272C24.0872 77.736 24.5192 77.968 25.0632 77.968C25.6712 77.968 26.2552 77.688 26.8152 77.128C27.3912 76.568 27.8712 75.776 28.2552 74.752C28.3032 74.608 28.3992 74.536 28.5432 74.536C28.6392 74.536 28.6952 74.576 28.7112 74.656C28.7432 74.736 28.7432 74.832 28.7112 74.944C28.1992 76.352 27.5752 77.416 26.8392 78.136C26.1192 78.856 25.3272 79.216 24.4632 79.216ZM23.5752 73C23.5432 73.112 23.5592 73.208 23.6232 73.288C23.7032 73.352 23.7992 73.368 23.9112 73.336C24.9032 73.064 25.7352 72.656 26.4072 72.112C27.0792 71.552 27.5832 70.928 27.9192 70.24C28.2712 69.552 28.4472 68.88 28.4472 68.224C28.4472 67.552 28.1832 67.216 27.6552 67.216C27.1912 67.216 26.6872 67.488 26.1432 68.032C25.5992 68.576 25.0952 69.288 24.6312 70.168C24.1672 71.048 23.8152 71.992 23.5752 73ZM32.4949 79.216C31.9669 79.216 31.4069 79.136 30.8149 78.976C30.2389 78.816 29.7989 78.616 29.4949 78.376C29.3829 78.28 29.3349 78.136 29.3509 77.944L29.8789 74.8C29.9109 74.592 30.0069 74.488 30.1669 74.488C30.3429 74.488 30.4309 74.6 30.4309 74.824L30.4789 75.976C30.5109 76.888 30.7269 77.56 31.1269 77.992C31.5429 78.408 32.0469 78.616 32.6389 78.616C33.1509 78.616 33.5909 78.456 33.9589 78.136C34.3269 77.8 34.5109 77.312 34.5109 76.672C34.5109 76.304 34.4549 75.968 34.3429 75.664C34.2309 75.344 34.0549 75.008 33.8149 74.656C33.5749 74.288 33.2469 73.848 32.8309 73.336C32.2869 72.632 31.8789 72.032 31.6069 71.536C31.3509 71.024 31.2229 70.496 31.2229 69.952C31.2229 68.944 31.5349 68.136 32.1589 67.528C32.7989 66.92 33.6069 66.616 34.5829 66.616C35.0149 66.616 35.4309 66.68 35.8309 66.808C36.2469 66.936 36.5909 67.128 36.8629 67.384C37.0069 67.496 37.0549 67.64 37.0069 67.816L36.3349 71.032C36.2869 71.24 36.1909 71.344 36.0469 71.344C35.9029 71.344 35.8149 71.232 35.7829 71.008L35.7109 69.856C35.6469 68.896 35.5189 68.208 35.3269 67.792C35.1509 67.376 34.7749 67.168 34.1989 67.168C33.6869 67.168 33.2709 67.344 32.9509 67.696C32.6309 68.048 32.4709 68.472 32.4709 68.968C32.4709 69.496 32.6149 69.984 32.9029 70.432C33.1909 70.864 33.5829 71.416 34.0789 72.088C34.7349 72.952 35.1749 73.64 35.3989 74.152C35.6389 74.664 35.7589 75.184 35.7589 75.712C35.7589 76.384 35.6069 76.984 35.3029 77.512C35.0149 78.04 34.6229 78.456 34.1269 78.76C33.6309 79.064 33.0869 79.216 32.4949 79.216ZM39.1131 79.216C38.5211 79.216 38.0651 78.968 37.7451 78.472C37.4251 77.976 37.2651 77.248 37.2651 76.288C37.2651 75.376 37.3931 74.464 37.6491 73.552C37.9051 72.624 38.2571 71.744 38.7051 70.912C39.1531 70.08 39.6571 69.344 40.2171 68.704C40.7931 68.064 41.3931 67.56 42.0171 67.192C42.6571 66.808 43.2891 66.616 43.9131 66.616C44.3451 66.616 44.7211 66.728 45.0411 66.952C45.2651 67.096 45.4011 67.048 45.4491 66.808L46.2171 63.64C46.2971 63.352 46.2971 63.152 46.2171 63.04C46.1531 62.928 46.0091 62.864 45.7851 62.848L45.0651 62.776C44.8251 62.76 44.7211 62.656 44.7531 62.464C44.7851 62.32 44.8971 62.232 45.0891 62.2C45.6651 62.104 46.1771 61.992 46.6251 61.864C47.0731 61.72 47.4331 61.536 47.7051 61.312C47.8331 61.216 47.9531 61.168 48.0651 61.168C48.2571 61.168 48.3291 61.288 48.2811 61.528L44.8731 76.288C44.6331 77.328 44.7931 77.848 45.3531 77.848C45.7211 77.848 46.0491 77.6 46.3371 77.104C46.6411 76.608 46.9451 75.84 47.2491 74.8C47.2971 74.624 47.4011 74.536 47.5611 74.536C47.6731 74.536 47.7451 74.584 47.7771 74.68C47.8091 74.776 47.8091 74.888 47.7771 75.016C47.4731 76.52 47.0491 77.6 46.5051 78.256C45.9771 78.896 45.3531 79.216 44.6331 79.216C44.0091 79.216 43.5611 78.952 43.2891 78.424C43.0331 77.896 43.0091 77.176 43.2171 76.264L43.4811 75.16C43.5131 75.048 43.4891 74.984 43.4091 74.968C43.3451 74.952 43.2891 74.992 43.2411 75.088C42.4731 76.592 41.7451 77.656 41.0571 78.28C40.3691 78.904 39.7211 79.216 39.1131 79.216ZM39.6891 77.992C40.0731 77.992 40.4971 77.76 40.9611 77.296C41.4251 76.832 41.8811 76.232 42.3291 75.496C42.7931 74.76 43.2171 73.968 43.6011 73.12C43.9851 72.272 44.2891 71.456 44.5131 70.672C44.7531 69.888 44.8731 69.224 44.8731 68.68C44.8731 67.704 44.5291 67.216 43.8411 67.216C43.4251 67.216 42.9851 67.408 42.5211 67.792C42.0571 68.16 41.6091 68.664 41.1771 69.304C40.7611 69.944 40.3771 70.672 40.0251 71.488C39.6891 72.288 39.4171 73.128 39.2091 74.008C39.0011 74.872 38.8971 75.72 38.8971 76.552C38.8971 77.112 38.9691 77.496 39.1131 77.704C39.2731 77.896 39.4651 77.992 39.6891 77.992ZM51.4163 79.216C50.5683 79.216 49.8883 78.888 49.3763 78.232C48.8643 77.56 48.6083 76.616 48.6083 75.4C48.6083 74.344 48.7923 73.296 49.1603 72.256C49.5443 71.216 50.0403 70.272 50.6483 69.424C51.2563 68.576 51.9203 67.896 52.6403 67.384C53.3763 66.872 54.0883 66.616 54.7763 66.616C55.5283 66.616 56.0643 66.8 56.3843 67.168C56.7203 67.52 56.8883 68 56.8883 68.608C56.8883 69.328 56.6323 70.048 56.1203 70.768C55.6243 71.472 54.9203 72.104 54.0083 72.664C53.1123 73.224 52.0563 73.64 50.8403 73.912C50.4883 73.992 50.3043 74.192 50.2883 74.512C50.2723 74.624 50.2643 74.744 50.2643 74.872C50.2643 74.984 50.2643 75.096 50.2643 75.208C50.2643 76.12 50.4163 76.808 50.7203 77.272C51.0403 77.736 51.4723 77.968 52.0163 77.968C52.6243 77.968 53.2083 77.688 53.7683 77.128C54.3443 76.568 54.8243 75.776 55.2083 74.752C55.2563 74.608 55.3523 74.536 55.4963 74.536C55.5923 74.536 55.6483 74.576 55.6643 74.656C55.6963 74.736 55.6963 74.832 55.6643 74.944C55.1523 76.352 54.5283 77.416 53.7923 78.136C53.0723 78.856 52.2803 79.216 51.4163 79.216ZM50.5283 73C50.4963 73.112 50.5123 73.208 50.5763 73.288C50.6563 73.352 50.7523 73.368 50.8643 73.336C51.8563 73.064 52.6883 72.656 53.3603 72.112C54.0323 71.552 54.5363 70.928 54.8723 70.24C55.2243 69.552 55.4003 68.88 55.4003 68.224C55.4003 67.552 55.1363 67.216 54.6083 67.216C54.1443 67.216 53.6403 67.488 53.0963 68.032C52.5523 68.576 52.0483 69.288 51.5843 70.168C51.1203 71.048 50.7683 71.992 50.5283 73ZM62.8782 79.216C62.3022 79.216 61.8542 78.968 61.5342 78.472C61.2142 77.976 61.0542 77.248 61.0542 76.288C61.0542 75.376 61.1822 74.464 61.4382 73.552C61.6942 72.624 62.0462 71.744 62.4942 70.912C62.9422 70.08 63.4462 69.344 64.0062 68.704C64.5822 68.064 65.1822 67.56 65.8062 67.192C66.4462 66.808 67.0782 66.616 67.7022 66.616C68.0062 66.616 68.2942 66.68 68.5662 66.808C68.8382 66.92 69.0622 67.104 69.2382 67.36C69.3342 67.504 69.4302 67.576 69.5262 67.576C69.6222 67.576 69.7182 67.504 69.8142 67.36C69.9902 67.104 70.1342 66.944 70.2462 66.88C70.3582 66.8 70.4622 66.76 70.5582 66.76C70.7662 66.76 70.8462 66.872 70.7982 67.096L68.6622 76.288C68.4222 77.328 68.5822 77.848 69.1422 77.848C69.5102 77.848 69.8382 77.6 70.1262 77.104C70.4302 76.608 70.7342 75.84 71.0382 74.8C71.0862 74.624 71.1902 74.536 71.3502 74.536C71.4622 74.536 71.5342 74.584 71.5662 74.68C71.5982 74.776 71.5982 74.888 71.5662 75.016C71.2622 76.52 70.8542 77.6 70.3422 78.256C69.8302 78.896 69.2142 79.216 68.4942 79.216C67.8702 79.216 67.4222 78.952 67.1502 78.424C66.8942 77.896 66.8702 77.176 67.0782 76.264L67.3902 74.944C67.4222 74.832 67.3982 74.768 67.3182 74.752C67.2542 74.736 67.1982 74.776 67.1502 74.872C66.2702 76.488 65.4862 77.616 64.7982 78.256C64.1262 78.896 63.4862 79.216 62.8782 79.216ZM63.4782 77.992C63.8622 77.992 64.2862 77.76 64.7502 77.296C65.2142 76.832 65.6702 76.232 66.1182 75.496C66.5822 74.76 67.0062 73.968 67.3902 73.12C67.7742 72.272 68.0782 71.456 68.3022 70.672C68.5422 69.888 68.6622 69.224 68.6622 68.68C68.6622 67.704 68.3182 67.216 67.6302 67.216C67.2142 67.216 66.7742 67.408 66.3102 67.792C65.8462 68.16 65.3982 68.664 64.9662 69.304C64.5502 69.944 64.1662 70.672 63.8142 71.488C63.4782 72.288 63.2062 73.128 62.9982 74.008C62.7902 74.872 62.6862 75.72 62.6862 76.552C62.6862 77.112 62.7502 77.496 62.8782 77.704C63.0222 77.896 63.2222 77.992 63.4782 77.992ZM75.3254 83.92C75.1174 83.92 75.0134 83.832 75.0134 83.656C75.0134 83.496 75.1414 83.4 75.3974 83.368L75.9974 83.32C76.3174 83.288 76.5494 83.2 76.6934 83.056C76.8374 82.912 76.9494 82.664 77.0294 82.312L78.7334 74.968C78.7654 74.856 78.7414 74.792 78.6614 74.776C78.5974 74.76 78.5414 74.8 78.4934 74.896C77.9494 76 77.4294 76.864 76.9334 77.488C76.4534 78.112 75.9894 78.56 75.5414 78.832C75.1094 79.088 74.6854 79.216 74.2694 79.216C73.6774 79.216 73.2214 78.968 72.9014 78.472C72.5814 77.976 72.4214 77.248 72.4214 76.288C72.4214 75.376 72.5494 74.464 72.8054 73.552C73.0614 72.624 73.4134 71.744 73.8614 70.912C74.3094 70.08 74.8134 69.344 75.3734 68.704C75.9494 68.064 76.5494 67.56 77.1734 67.192C77.8134 66.808 78.4454 66.616 79.0694 66.616C79.3734 66.616 79.6614 66.68 79.9334 66.808C80.2054 66.92 80.4294 67.104 80.6054 67.36C80.7014 67.504 80.7974 67.576 80.8934 67.576C80.9894 67.576 81.0854 67.504 81.1814 67.36C81.3574 67.104 81.5014 66.944 81.6134 66.88C81.7254 66.8 81.8294 66.76 81.9254 66.76C82.1334 66.76 82.2134 66.872 82.1654 67.096L78.6374 82.312C78.5574 82.664 78.5574 82.896 78.6374 83.008C78.7334 83.136 78.9254 83.224 79.2134 83.272L79.6214 83.344C79.9094 83.392 80.0534 83.488 80.0534 83.632C80.0534 83.824 79.9174 83.92 79.6454 83.92H75.3254ZM74.8454 77.992C75.2294 77.992 75.6534 77.76 76.1174 77.296C76.5814 76.832 77.0374 76.232 77.4854 75.496C77.9494 74.76 78.3734 73.968 78.7574 73.12C79.1414 72.272 79.4454 71.456 79.6694 70.672C79.9094 69.888 80.0294 69.224 80.0294 68.68C80.0294 67.704 79.6854 67.216 78.9974 67.216C78.5814 67.216 78.1414 67.408 77.6774 67.792C77.2134 68.16 76.7654 68.664 76.3334 69.304C75.9174 69.944 75.5334 70.672 75.1814 71.488C74.8454 72.288 74.5734 73.128 74.3654 74.008C74.1574 74.872 74.0534 75.72 74.0534 76.552C74.0534 77.112 74.1254 77.496 74.2694 77.704C74.4294 77.896 74.6214 77.992 74.8454 77.992ZM85.0647 79.216C84.4727 79.216 84.0647 78.952 83.8407 78.424C83.6327 77.88 83.6487 77.168 83.8887 76.288L85.7847 69.328C85.9127 68.864 85.9447 68.504 85.8807 68.248C85.8167 67.992 85.6727 67.864 85.4487 67.864C85.0807 67.864 84.7047 68.144 84.3207 68.704C83.9527 69.264 83.6327 70.04 83.3607 71.032C83.3127 71.208 83.2087 71.296 83.0487 71.296C82.8247 71.296 82.7527 71.136 82.8327 70.816C83.2007 69.472 83.6807 68.44 84.2727 67.72C84.8807 66.984 85.5447 66.616 86.2647 66.616C86.8407 66.616 87.2247 66.88 87.4167 67.408C87.6087 67.936 87.5767 68.656 87.3207 69.568L85.4007 76.528C85.0967 77.632 85.2007 78.184 85.7127 78.184C86.0327 78.184 86.4007 77.968 86.8167 77.536C87.2327 77.104 87.6647 76.512 88.1127 75.76C88.5767 75.008 89.0327 74.152 89.4807 73.192C89.9287 72.232 90.3367 71.224 90.7047 70.168C91.0727 69.112 91.3767 68.064 91.6167 67.024C91.6647 66.848 91.7767 66.76 91.9527 66.76H92.9127C93.1367 66.76 93.2247 66.864 93.1767 67.072L90.9207 76.72C90.7447 77.472 90.8807 77.848 91.3287 77.848C92.0007 77.848 92.7047 76.832 93.4407 74.8C93.5047 74.592 93.6167 74.488 93.7767 74.488C93.8727 74.488 93.9367 74.528 93.9687 74.608C94.0167 74.688 94.0167 74.792 93.9687 74.92C93.5367 76.28 93.0247 77.336 92.4327 78.088C91.8407 78.84 91.2167 79.216 90.5607 79.216C89.4087 79.216 89.0247 78.376 89.4087 76.696L90.0327 74.032C90.0647 73.92 90.0407 73.856 89.9607 73.84C89.8967 73.824 89.8407 73.864 89.7927 73.96C88.8647 75.88 88.0087 77.24 87.2247 78.04C86.4407 78.824 85.7207 79.216 85.0647 79.216ZM97.4202 79.24C96.8922 79.24 96.5162 79.048 96.2922 78.664C96.0682 78.264 96.0602 77.616 96.2682 76.72L98.0442 69.112C98.1242 68.76 98.1322 68.488 98.0682 68.296C98.0202 68.088 97.8762 67.984 97.6362 67.984C97.3482 67.984 97.0282 68.2 96.6762 68.632C96.3402 69.048 95.9562 69.848 95.5242 71.032C95.4602 71.24 95.3482 71.344 95.1882 71.344C94.9482 71.344 94.8842 71.2 94.9962 70.912C95.3482 69.808 95.7162 68.944 96.1002 68.32C96.5002 67.696 96.9002 67.256 97.3002 67C97.7002 66.744 98.0682 66.616 98.4042 66.616C98.9642 66.616 99.3562 66.816 99.5802 67.216C99.8042 67.6 99.8122 68.24 99.6042 69.136L97.8282 76.744C97.7482 77.096 97.7322 77.376 97.7802 77.584C97.8442 77.776 97.9962 77.872 98.2362 77.872C98.5242 77.872 98.8362 77.664 99.1722 77.248C99.5242 76.816 99.9162 76.008 100.348 74.824C100.412 74.616 100.524 74.512 100.684 74.512C100.924 74.512 100.988 74.656 100.876 74.944C100.54 76.032 100.164 76.896 99.7482 77.536C99.3482 78.16 98.9482 78.6 98.5482 78.856C98.1482 79.112 97.7722 79.24 97.4202 79.24ZM97.9962 64.96C97.7082 65.072 97.5242 65.024 97.4442 64.816C97.3802 64.656 97.4842 64.48 97.7562 64.288L101.524 61.72C101.972 61.4 102.356 61.24 102.676 61.24C102.996 61.24 103.228 61.32 103.372 61.48C103.532 61.64 103.612 61.832 103.612 62.056C103.612 62.296 103.524 62.504 103.348 62.68C103.188 62.856 102.868 63.04 102.388 63.232L97.9962 64.96Z" fill="#262926"/>
<g clip-path="url(#clip0_2171_4676)">
<path d="M11.3169 28.1119C10.1812 26.3358 9.05219 24.5597 7.93644 22.7705C7.61102 22.2612 8.20874 22 8.66035 22C9.24479 22 10.0816 22.1959 10.427 22.7183C11.5958 24.4944 12.7514 26.2705 13.9004 28.0532C14.2391 28.5821 13.6015 28.8563 13.1499 28.8563C12.5522 28.8563 11.6622 28.6539 11.3169 28.1119Z" fill="#262926"/>
<path d="M8.08256 30.7304C6.27611 29.9338 4.4763 29.1306 2.67649 28.3209C2.34442 28.1707 1.56738 27.7136 1.9725 27.2761C2.37762 26.8386 3.29413 27.0672 3.72582 27.25C5.54556 28.0336 7.35865 28.8237 9.17838 29.6204C9.4374 29.7314 9.75618 29.9077 9.91558 30.1493C10.0218 30.3125 10.075 30.5541 9.91558 30.7043C9.47725 31.1157 8.57402 30.9459 8.09584 30.7304H8.08256Z" fill="#262926"/>
<path d="M5.80456 35.9869C4.37666 35.8433 2.94213 35.6996 1.51423 35.5494C1.17552 35.5103 0.796966 35.3927 0.511387 35.2164C0.338712 35.1119 0.0398502 34.8899 0.0066433 34.6679C-0.0730529 34.0802 0.7704 34.0737 1.1556 34.1063C2.58349 34.2304 4.01139 34.3675 5.43928 34.5112C5.78463 34.5438 6.17647 34.6744 6.46869 34.8573C6.64137 34.9617 6.95351 35.1903 6.98672 35.4254C7.06642 36.0261 6.20304 36.0392 5.8112 36L5.80456 35.9869Z" fill="#262926"/>
</g>
<g clip-path="url(#clip1_2171_4676)">
<path d="M92.5578 44.1369C111.002 45.2718 129.653 42.4446 146.881 35.9419C151.739 34.1072 156.45 31.9528 161.085 29.6331C161.637 29.356 162.073 29.6899 162.012 30.2638C161.945 30.9445 161.32 31.7257 160.738 32.0432C144.24 40.9649 125.358 45.9666 106.591 47.0246C101.296 47.3263 95.9802 47.2969 90.6834 46.9659C89.9024 46.9197 90.4784 45.6383 90.6716 45.34C91.0763 44.7248 91.762 44.0833 92.5504 44.1332L92.5578 44.1369Z" fill="#262926"/>
<path d="M153.618 24.7452C157.835 25.1116 162.049 25.6142 166.236 26.2492C166.517 26.2964 166.631 26.5904 166.641 26.8332C166.673 29.0366 165.563 30.9517 164.236 32.6319C162.723 34.5405 160.941 36.262 159.282 38.0349C155.778 41.7722 152.371 45.6491 148.694 49.2286C148.354 49.564 147.588 49.9923 147.203 49.5186C146.817 49.0449 147.452 48.1313 147.738 47.7959C150.661 44.3762 153.863 41.1766 156.943 37.8889C158.441 36.293 159.935 34.7045 161.425 33.1049C162.656 31.7891 163.96 30.4364 163.942 28.5236L164.347 29.1076C160.168 28.4579 155.968 27.9443 151.747 27.5668C150.97 27.4949 151.531 26.243 151.739 25.9336C152.136 25.3332 152.84 24.6549 153.629 24.7231L153.618 24.7452Z" fill="#262926"/>
</g>
<defs>
<clipPath id="clip0_2171_4676">
<rect width="14" height="14" fill="white" transform="matrix(-1 0 0 1 14 22)"/>
</clipPath>
<clipPath id="clip1_2171_4676">
<rect width="52.0444" height="60.7184" fill="white" transform="matrix(-0.442021 0.897005 0.897005 0.442021 113.005 0)"/>
</clipPath>
</defs>
</svg>
